<svg width="18" height="18" viewBox="0 0 18 18" fill="none" xmlns="http://www.w3.org/2000/svg">
<path d="M15.3384 6.08936L16.0842 6.01084L16.0842 6.01084L15.3384 6.08936ZM16.391 16.0894L15.6451 16.1679L16.391 16.0894ZM1.60901 16.0894L2.35489 16.1679L1.60901 16.0894ZM2.66164 6.08936L1.91576 6.01084L2.66164 6.08936ZM11.375 7.75C11.375 8.16421 11.7108 8.5 12.125 8.5C12.5392 8.5 12.875 8.16421 12.875 7.75H11.375ZM5.125 7.75C5.125 8.16421 5.46078 8.5 5.875 8.5C6.28921 8.5 6.625 8.16421 6.625 7.75H5.125ZM14.5925 6.16787L15.6451 16.1679L17.1369 16.0108L16.0842 6.01084L14.5925 6.16787ZM15.4586 16.375H2.54136V17.875H15.4586V16.375ZM2.35489 16.1679L3.40752 6.16787L1.91576 6.01084L0.863132 16.0108L2.35489 16.1679ZM3.59399 6H14.406V4.5H3.59399V6ZM2.54136 16.375C2.43004 16.375 2.34324 16.2786 2.35489 16.1679L0.863132 16.0108C0.758252 17.0072 1.53949 17.875 2.54136 17.875V16.375ZM15.6451 16.1679C15.6568 16.2786 15.57 16.375 15.4586 16.375V17.875C16.4605 17.875 17.2417 17.0072 17.1369 16.0108L15.6451 16.1679ZM16.0842 6.01084C15.9938 5.152 15.2696 4.5 14.406 4.5V6C14.502 6 14.5824 6.07244 14.5925 6.16787L16.0842 6.01084ZM3.40752 6.16787C3.41757 6.07244 3.49804 6 3.59399 6V4.5C2.7304 4.5 2.00617 5.152 1.91576 6.01084L3.40752 6.16787ZM5.4375 7.75C5.4375 7.50838 5.63337 7.3125 5.875 7.3125V8.8125C6.4618 8.8125 6.9375 8.3368 6.9375 7.75H5.4375ZM5.875 7.3125C6.11662 7.3125 6.3125 7.50838 6.3125 7.75H4.8125C4.8125 8.3368 5.28819 8.8125 5.875 8.8125V7.3125ZM6.3125 7.75C6.3125 7.99162 6.11662 8.1875 5.875 8.1875V6.6875C5.28819 6.6875 4.8125 7.1632 4.8125 7.75H6.3125ZM5.875 8.1875C5.63337 8.1875 5.4375 7.99162 5.4375 7.75H6.9375C6.9375 7.1632 6.4618 6.6875 5.875 6.6875V8.1875ZM11.6875 7.75C11.6875 7.50838 11.8834 7.3125 12.125 7.3125V8.8125C12.7118 8.8125 13.1875 8.3368 13.1875 7.75H11.6875ZM12.125 7.3125C12.3666 7.3125 12.5625 7.50838 12.5625 7.75H11.0625C11.0625 8.3368 11.5382 8.8125 12.125 8.8125V7.3125ZM12.5625 7.75C12.5625 7.99162 12.3666 8.1875 12.125 8.1875V6.6875C11.5382 6.6875 11.0625 7.1632 11.0625 7.75H12.5625ZM12.125 8.1875C11.8834 8.1875 11.6875 7.99162 11.6875 7.75H13.1875C13.1875 7.1632 12.7118 6.6875 12.125 6.6875V8.1875ZM6.625 4C6.625 2.68832 7.68832 1.625 9 1.625V0.125C6.85989 0.125 5.125 1.8599 5.125 4H6.625ZM9 1.625C10.3117 1.625 11.375 2.68832 11.375 4H12.875C12.875 1.8599 11.1401 0.125 9 0.125V1.625ZM11.375 4V7.75H12.875V4H11.375ZM5.125 4V7.75H6.625V4H5.125Z" fill="#F4894A"/>
</svg>
