<svg width="19" height="15" viewBox="0 0 19 15" fill="none" xmlns="http://www.w3.org/2000/svg">
<path d="M2.19748 1.59052L2.2749 2.33652L2.19748 1.59052ZM10.5525 1.59052L10.4751 2.33652L10.5525 1.59052ZM13.6022 3.31096L13.6433 2.56209C13.6296 2.56134 13.6159 2.56096 13.6022 2.56096V3.31096ZM14.918 4.02736L14.3038 4.45775L14.918 4.02736ZM16.6875 12.625V11.875H16.6875L16.6875 12.625ZM17.5962 11.688L18.3448 11.6418L17.5962 11.688ZM2.2749 2.33652C3.62229 2.19669 4.99015 2.125 6.375 2.125V0.625C4.93834 0.625 3.5188 0.699375 2.12007 0.844531L2.2749 2.33652ZM6.375 2.125C7.75985 2.125 9.12771 2.19669 10.4751 2.33652L10.6299 0.844531C9.2312 0.699375 7.81166 0.625 6.375 0.625V2.125ZM2.125 2.51232C2.125 2.41388 2.19635 2.34467 2.2749 2.33652L2.12007 0.844531C1.25785 0.934008 0.625 1.66495 0.625 2.51232H2.125ZM12.125 2.51232C12.125 1.66495 11.4922 0.934008 10.6299 0.844531L10.4751 2.33652C10.5537 2.34467 10.625 2.41388 10.625 2.51232H12.125ZM18.3448 11.6418C18.161 8.66001 17.1472 5.90182 15.5322 3.59698L14.3038 4.45775C15.7649 6.54298 16.6813 9.0366 16.8476 11.7341L18.3448 11.6418ZM13.5611 4.05983C13.8707 4.07682 14.1419 4.22678 14.3038 4.45775L15.5322 3.59698C15.0904 2.96641 14.3841 2.60274 13.6433 2.56209L13.5611 4.05983ZM16.6875 13.375C17.6063 13.375 18.4051 12.6208 18.3448 11.6418L16.8476 11.7341C16.8497 11.7684 16.8389 11.7982 16.8126 11.825C16.7845 11.8537 16.7411 11.875 16.6875 11.875V13.375ZM2.3125 11.875C2.20895 11.875 2.125 11.7911 2.125 11.6875H0.625C0.625 12.6195 1.38052 13.375 2.3125 13.375V11.875ZM5.625 12.625C5.625 12.9011 5.40114 13.125 5.125 13.125V14.625C6.22957 14.625 7.125 13.7296 7.125 12.625H5.625ZM5.125 13.125C4.84886 13.125 4.625 12.9011 4.625 12.625H3.125C3.125 13.7296 4.02043 14.625 5.125 14.625V13.125ZM4.625 12.625C4.625 12.3489 4.84886 12.125 5.125 12.125V10.625C4.02043 10.625 3.125 11.5204 3.125 12.625H4.625ZM5.125 12.125C5.40114 12.125 5.625 12.3489 5.625 12.625H7.125C7.125 11.5204 6.22957 10.625 5.125 10.625V12.125ZM15 12.625C15 12.9011 14.7761 13.125 14.5 13.125V14.625C15.6046 14.625 16.5 13.7296 16.5 12.625H15ZM14.5 13.125C14.2239 13.125 14 12.9011 14 12.625H12.5C12.5 13.7296 13.3954 14.625 14.5 14.625V13.125ZM14 12.625C14 12.3489 14.2239 12.125 14.5 12.125V10.625C13.3954 10.625 12.5 11.5204 12.5 12.625H14ZM14.5 12.125C14.7761 12.125 15 12.3489 15 12.625H16.5C16.5 11.5204 15.6046 10.625 14.5 10.625V12.125ZM3.875 11.875H2.3125V13.375H3.875V11.875ZM15.75 13.375L16.6875 13.375L16.6875 11.875L15.75 11.875L15.75 13.375ZM10.625 2.51232V3.31096H12.125V2.51232H10.625ZM13.6022 2.56096H11.375V4.06096H13.6022V2.56096ZM6.375 13.375H11.375V11.875H6.375V13.375ZM11.375 13.375H13.25V11.875H11.375V13.375ZM10.625 3.31096V8.87537H12.125V3.31096H10.625ZM10.625 8.87537V12.625H12.125V8.87537H10.625ZM2.125 11.6875V8.87537H0.625V11.6875H2.125ZM2.125 8.87537V2.51232H0.625V8.87537H2.125ZM11.375 8.12537H1.375V9.62537H11.375V8.12537Z" fill="#475569"/>
</svg>
